<?xml version="1.0" encoding="utf-8"?>
<svg version="1.1" xmlns:xlink="http://www.w3.org/1999/xlink" width="12px" height="12px" viewBox="0 4.5  12 12" xmlns="http://www.w3.org/2000/svg">
  <path d="M 6 4.5  C 9.36 4.5  12 7.14  12 10.5  C 12 13.86  9.36 16.5  6 16.5  C 2.64 16.5  0 13.86  0 10.5  C 0 7.14  2.64 4.5  6 4.5  Z " fill-rule="nonzero" fill="#ffffff" stroke="none" />
  <path d="M 6 5  C 9.08 5  11.5 7.42  11.5 10.5  C 11.5 13.58  9.08 16  6 16  C 2.92 16  0.5 13.58  0.5 10.5  C 0.5 7.42  2.92 5  6 5  Z " stroke-width="1" stroke="#797979" fill="none" />
  <path d="M 6 13.5  C 4.32 13.5  3 12.18  3 10.5  C 3 8.82  4.32 7.5  6 7.5  C 7.68 7.5  9 8.82  9 10.5  C 9 12.18  7.68 13.5  6 13.5  " fill-rule="nonzero" fill="#797979" stroke="none" />
</svg>