<?xml version="1.0" encoding="utf-8"?>
<svg version="1.1" xmlns:xlink="http://www.w3.org/1999/xlink" width="12px" height="12px" viewBox="88 4.5  12 12" xmlns="http://www.w3.org/2000/svg">
  <path d="M 94 4.5  C 97.36 4.5  100 7.14  100 10.5  C 100 13.86  97.36 16.5  94 16.5  C 90.64 16.5  88 13.86  88 10.5  C 88 7.14  90.64 4.5  94 4.5  Z " fill-rule="nonzero" fill="#ffffff" stroke="none" />
  <path d="M 94 5  C 97.08 5  99.5 7.42  99.5 10.5  C 99.5 13.58  97.08 16  94 16  C 90.92 16  88.5 13.58  88.5 10.5  C 88.5 7.42  90.92 5  94 5  Z " stroke-width="1" stroke="#797979" fill="none" />
  <path d="M 94 13.5  C 92.32 13.5  91 12.18  91 10.5  C 91 8.82  92.32 7.5  94 7.5  C 95.68 7.5  97 8.82  97 10.5  C 97 12.18  95.68 13.5  94 13.5  " fill-rule="nonzero" fill="#797979" stroke="none" />
</svg>