<?xml version="1.0" encoding="utf-8"?>
<svg version="1.1" xmlns:xlink="http://www.w3.org/1999/xlink" width="12px" height="12px" viewBox="555 388.5  12 12" xmlns="http://www.w3.org/2000/svg">
  <path d="M 561 388.5  C 564.36 388.5  567 391.14  567 394.5  C 567 397.86  564.36 400.5  561 400.5  C 557.64 400.5  555 397.86  555 394.5  C 555 391.14  557.64 388.5  561 388.5  Z " fill-rule="nonzero" fill="#ffffff" stroke="none" />
  <path d="M 561 389  C 564.08 389  566.5 391.42  566.5 394.5  C 566.5 397.58  564.08 400  561 400  C 557.92 400  555.5 397.58  555.5 394.5  C 555.5 391.42  557.92 389  561 389  Z " stroke-width="1" stroke="#797979" fill="none" />
  <path d="M 561 397.5  C 559.32 397.5  558 396.18  558 394.5  C 558 392.82  559.32 391.5  561 391.5  C 562.68 391.5  564 392.82  564 394.5  C 564 396.18  562.68 397.5  561 397.5  " fill-rule="nonzero" fill="#797979" stroke="none" />
</svg>